<?xml version="1.0" encoding="UTF-8"?>
<svg version="1.1" viewBox="0 0 407.79 308.3" xmlns="http://www.w3.org/2000/svg">
 <g transform="translate(-1260.2 -217.05)">
  <g transform="translate(1075.5 -134.51)" fill="#fff" stroke="#333">
   <g transform="translate(-10.732 -236.11)" fill="#fff" stroke="#333" aria-label="Bienvenue sur">
    <path d="m244.58 619.33c-2.3424 6.0343-3.8175 12.933-8.8536 17.407-4.8045 3.9786-13.419 1.252-14.62-5.016-1.1045-2.2897 0.51456-6.3015 2.7219-3.0044 2.9131 2.5546 6.5748-0.14983 8.1667-2.8514 4.023-6.2501 5.9519-13.547 8.4191-20.489 1.2231-3.7847 2.4632-7.574 4.0945-11.207-6.1292 0.63316-12.96 1.475-17.534 6.0446-2.8448 2.852-2.8172 7.0493-2.9229 10.78-2.5334 2.8919-6.2286-1.9034-7.5245-4.2308-2.6059-4.6108-0.0788-10.49 4.3012-12.948 7.8028-4.5807 17.127-5.2705 25.974-5.5527 3.2822-0.44528 7.1786 0.80747 8.7328 3.8874-0.32777 1.5425-2.9174 5.7209-2.4929 5.102 3.0516-3.7261 7.5344-6.0763 12.004-7.701 3.7396-1.3508 9.0207-2.0524 11.522 1.7904 2.2489 4.346 0.29352 9.4268-2.5677 12.987-3.201 4.1926-7.437 7.4462-11.693 10.499 4.2869-0.14131 8.9248 2.0827 10.222 6.4333 1.8912 4.9577 0.84629 10.703-2.3589 14.884-1.6733 2.3245-4.0342 3.9335-2.2874 6.8466 0.56067 3.4956-2.5443 2.2305-3.9594 0.56849-2.1329 0.67717-4.3032 3.153-6.6388 4.2476-5.3925 3.1228-11.484 5.8024-17.839 5.4683-3.7852-0.42063-7.594-3.9071-6.4992-7.9679 1.6885-6.4471 8.4092-9.9355 14.529-10.984 3.8252-0.55589 7.765-0.43935 11.544 0.37527 3.435-3.3798 5.9731-8.5556 4.1146-13.345-1.6646-3.1961-5.8952-2.5096-8.7107-1.5313-2.7086 0.81756-6.081 3.8418-8.5833 0.92814-0.44786-0.44781-0.86866-0.92269-1.2598-1.4207zm-4.8607 26.52c4.4519-0.98513 8.5479-3.1801 12.438-5.5041-4.591-0.0351-9.2984 1.1917-13.175 3.6724-1.5959 0.87511-1.0192 2.1414 0.73714 1.8317zm10.651-39.315c-0.77658 2.1195-3.8053 5.2374-2.3946 7.023 6.2209-3.6243 12.718-6.922 18.449-11.338 2.0143-1.7323 5.2773-4.3395 3.889-7.3369-1.6195-2.7477-5.3958-1.3942-7.5536-0.11392-4.8449 2.9825-9.268 6.9878-12.39 11.765z"/>
    <path d="m293.26 592.43c-2.3299 0.0177-4.512 1.7009-5.709 3.6289-1.3376 2.1219-1.8637 5.5144 0.35351 7.252 0.42933 0.28821 0.92321 0.47668 1.4356 0.54688 3.5117 0.29724 6.4338-2.8301 7.209-6.0371 0.5065-1.9822-0.049-4.6815-2.2832-5.291-0.33648-0.0695-0.67301-0.10214-1.0059-0.0996zm16.758 12.594c-1.5854 0.0322-3.186 0.46144-4.5859 1.1348-5.8827 2.8193-10.162 8.3609-12.338 14.42-0.25493 0.80193-0.46551 1.6244-0.63282 2.457-1.4175 1.9779-2.788 3.9942-4.3965 5.8262-1.0266 1.2211-2.6266 3.1585-4.3965 2.1836-1.209-1.3954-0.65354-3.501-0.4043-5.1719 1.1144-4.7366 2.9001-9.3686 5.5156-13.484 1.3562-1.1802 1.6876-3.0519-0.17773-3.9473-1.6426-1.0072-3.4709-2.3927-5.4648-2.248-1.6715 0.93326-2.5492 2.7807-3.4531 4.3906-2.8249 6.0063-4.6202 12.557-4.957 19.199-0.12625 3.2613 0.0334 7.1106 2.6152 9.4688 2.1876 1.5808 5.2129 0.9632 7.5195-0.0215 3.207-1.7341 5.7873-4.3426 7.7793-7.3652 0.13015 0.47612 0.27966 0.94639 0.45508 1.4102 1.2691 3.5501 4.4393 6.6323 8.3184 6.9199 1.1228 0.0276 2.2505-0.11593 3.332-0.41797 4.5846-1.4216 8.255-4.8574 11.102-8.6113 0.10202-0.14505 0.20298-0.29317 0.30469-0.43945 0.55587 2.8677 2.0543 5.5473 4.6328 7.0391 1.172 0.56639 3.035 1.4306 4.1133 0.56641 0.0455-1.849 0.26431-3.699 0.74024-5.4902 1.814-6.3569 4.8905-12.286 8.3691-17.879-1.8927 5.3876-3.0578 11.102-2.918 16.83 0.15252 2.7971 0.72932 6.1088 3.2539 7.7598 2.4954 1.2675 5.5772 0.54107 7.9277-0.72656 2.601-1.646 4.8006-3.8133 6.6016-6.2871 0.48366 1.599 1.1838 3.1206 2.2012 4.4922 2.2296 3.1715 6.9358 4.2235 10.27 2.2226 3.5976-2.2472 6.0219-5.8938 8.1914-9.4473 3.5625-6.2564 6.418-12.933 8.3945-19.859 0.49593-1.8733-1.6719-2.8834-3.0488-3.5332-1.5687-0.40942-4.2861-1.906-5.2578 0.0918-1.7122 4.2886-2.6129 8.8453-3.9316 13.262-1.1981 3.8451-2.3045 7.8531-4.7344 11.135-0.85647 1.3171-2.775 2.4337-4.2363 1.3945-1.1104-1.3035-0.98279-3.1948-0.96289-4.8086 0.55465-5.4657 2.283-10.811 4.8594-15.654 0.66317-1.1556 2.3239-2.5915 0.66211-3.7559-1.6497-1.4293-3.6771-2.5424-5.8262-2.9805l-0.35742 0.0234-0.35352 0.0703c-2.2405 0.74045-3.3335 3.1077-4.2383 5.1016-1.7093 4.3205-2.5848 8.9755-2.6621 13.619 1e-3 0.2551 0.01 0.51445 0.0137 0.77148-0.8835 1.2693-1.7831 2.5262-2.8203 3.6738-1.1848 1.1964-2.856 3.4262-4.7539 2.3848-1.1935-1.3749-0.70543-3.4071-0.45508-5.0488 1.155-5.2361 3.1903-10.333 6.1953-14.787 1.8768-1.268 0.40959-3.1875-1.1211-3.9102-1.6956-0.89261-3.5335-2.1712-5.5352-1.8887-3.0743 0.76079-5.2389 3.3535-7.2012 5.6699-3.1699 4.0922-5.9714 8.5504-7.8047 13.406 0.59198-3.8507 1.9255-7.57 3.8477-10.955 0.52611-1.5787 2.6027-2.6576 2.3828-4.3457-1.317-1.9571-3.6597-2.8707-5.7891-3.6602-2.1358-0.80826-3.3527 1.8101-4.1856 3.3106-2.0226 4.197-3.3782 8.7109-4.1074 13.316-1.5635 2.3442-3.2453 4.6216-5.4414 6.416-2.0913 1.9501-5.2094 3.0592-8.0078 2.1934-1.8625-0.81984-2.0358-3.2156-1.8926-4.9824 1.1646-0.63735 3.4407-0.61772 4.8477-1.582 4.14-1.9907 7.9763-5.084 10.023-9.2695 1.0904-2.734 1.0407-6.4397-1.5293-8.3516-1.3345-0.9162-2.9049-1.2822-4.4902-1.25zm1.6895 4.291c1.4155-0.0933 1.0658 1.5665 0.58984 2.3242-2.0059 3.3532-5.4475 5.738-9.168 6.8262 0.84147-1.7285 1.7652-3.427 2.8945-4.9863 1.427-1.8525 3.1928-3.9531 5.6836-4.1641z"/>
    <path d="m392.65 605.03c-1.5854 0.0322-3.1879 0.46144-4.5879 1.1348-5.8827 2.8193-10.16 8.3609-12.336 14.42-1.296 4.0768-1.5285 8.6512 2e-3 12.697 1.2693 3.5507 4.4365 6.6332 8.3164 6.9199 1.1234 0.0278 2.2498-0.11576 3.332-0.41797 4.5846-1.4216 8.2569-4.8574 11.104-8.6113 0.10158-0.14443 0.20145-0.29184 0.30273-0.4375 0.55616 2.867 2.0548 5.5457 4.6328 7.0371 1.172 0.56639 3.037 1.4306 4.1152 0.56641 0.0455-1.849 0.26235-3.699 0.73828-5.4902 1.814-6.3569 4.8924-12.286 8.3711-17.879-1.8927 5.3876-3.0598 11.102-2.9199 16.83 0.15253 2.7971 0.72932 6.1088 3.2539 7.7598 2.4954 1.2675 5.5791 0.54107 7.9297-0.72656 2.0995-1.3287 3.9367-2.9981 5.5156-4.8926 0.26176 0.76612 0.60306 1.5118 1.0488 2.2266 1.2682 2.3049 4.3016 3.1509 6.6562 2.1133 3.3454-1.7005 5.7637-4.7608 7.7695-7.8535 1.0832-2.3223 0.59778 0.80523 0.87304 1.8359 0.36917 2.7258 1.0047 5.8928 3.4473 7.5273 2.0857 0.93778 4.5497 0.15057 6.5117-0.76758 2.7813-1.6616 5.1159-3.9311 7.002-6.543 0.0855 0.26992 0.17882 0.53709 0.2793 0.80274 1.2693 3.5507 4.4365 6.6332 8.3164 6.9199 1.1234 0.0278 2.2498-0.11576 3.332-0.41797 4.5846-1.4216 8.255-4.8574 11.102-8.6113 2.0457-2.9087 4.0675-6.0607 4.5801-9.6445 0.62186-1.7159-1.686-3.4809-2.6934-1.5352-1.9295 2.973-3.8896 6.0108-6.666 8.2793-2.0913 1.9501-5.2114 3.0592-8.0098 2.1934-1.8625-0.81983-2.0339-3.2156-1.8906-4.9824 1.1646-0.63735 3.4388-0.61772 4.8457-1.582 4.14-1.9907 7.9762-5.084 10.023-9.2695 1.0904-2.734 1.0407-6.4396-1.5293-8.3516-2.669-1.8324-6.2762-1.4619-9.0762-0.11523-5.8827 2.8193-10.16 8.3609-12.336 14.42-0.34076 1.0719-0.60612 2.1786-0.78711 3.3008-1.2204 1.7576-2.4428 3.513-3.9219 5.0684-1.0517 1.1624-3.1946 3.1268-4.6113 1.4141-0.84348-2.0909-0.1968-4.4259 0.29297-6.5332 1.4078-4.8289 3.2493-9.6807 6.4082-13.654 1.0752-1.9693-1.9983-3.1549-3.3223-4.0039-1.6836-1.0182-4.1617-1.7263-5.2188 0.54883-2.5946 3.9538-4.0413 8.5488-5.1719 13.105-0.8553 2.3577-2.1138 4.6142-3.6856 6.5781-1.0218 1.267-3.118 2.9706-4.6445 1.5078-0.90986-1.6199-0.45417-3.619-0.0996-5.3496 1.2491-4.4951 3.114-8.9294 6.0586-12.586 0.69485-1.8931-1.7408-3.0684-3.0215-3.9609-1.6016-1.2696-3.8061-1.0552-4.8086 0.85351-3.3645 4.5819-5.3336 10.044-6.7539 15.504-0.21505 0.9102-0.40836 1.8508-0.57422 2.8008-0.77543 1.102-1.5746 2.1853-2.4785 3.1856-1.1849 1.1964-2.856 3.4262-4.7539 2.3848-1.1935-1.3749-0.70543-3.4071-0.45508-5.0488 1.155-5.2361 3.1903-10.333 6.1953-14.787 1.8768-1.268 0.41154-3.1875-1.1191-3.9102-1.6956-0.8926-3.5355-2.1712-5.5371-1.8887-3.0743 0.76078-5.2389 3.3535-7.2012 5.6699-3.1699 4.0922-5.9715 8.5504-7.8047 13.406 0.59198-3.8507 1.9255-7.57 3.8477-10.955 0.52611-1.5787 2.6047-2.6576 2.3848-4.3457-1.317-1.9571-3.6597-2.8707-5.7891-3.6602-2.1358-0.80826-3.3546 1.8101-4.1875 3.3106-2.0231 4.1982-3.3783 8.7135-4.1074 13.32-1.5628 2.3428-3.2445 4.6186-5.4394 6.4121-2.0913 1.9501-5.2114 3.0592-8.0098 2.1934-1.8625-0.81984-2.0339-3.2156-1.8906-4.9824 1.1646-0.63735 3.4407-0.61772 4.8476-1.582 4.14-1.9907 7.9743-5.084 10.021-9.2695 1.0904-2.734 1.0407-6.4397-1.5293-8.3516-1.3345-0.9162-2.9029-1.2822-4.4883-1.25zm1.6875 4.291c1.4155-0.0933 1.0658 1.5665 0.58984 2.3242-2.0059 3.3532-5.4475 5.738-9.168 6.8262 0.84147-1.7285 1.7671-3.427 2.8965-4.9863 1.427-1.8525 3.1908-3.9531 5.6816-4.1641zm88.279 0c1.4155-0.0933 1.0658 1.5665 0.58985 2.3242-2.0059 3.3532-5.4475 5.738-9.168 6.8262 0.84146-1.7285 1.7652-3.427 2.8945-4.9863 1.427-1.8525 3.1928-3.9531 5.6836-4.1641z"/>
    <path d="m516.21 605.03c2.3138 0.28447 4.7132 1.4724 5.6325 3.7396 1.7096 3.481 0.94835 7.7328-1.2222 10.834-1.0757 1.6217-3.0727 3.1953-5.1073 2.3497-1.6953-0.87776-2.7515-2.9467-2.5197-4.8429 0.18467-1.4897 1.9564-0.73899 2.8313-1.4737 1.5832-1.0065 2.8755-2.7419 2.972-4.6558 0.0665-1.8508-2.1099-1.7354-3.3714-1.4152-2.6097 0.47551-4.1667 3.046-4.5659 5.493-0.44323 2.199 0.0197 4.5566 1.4151 6.3367 1.6389 2.7691 4.0891 5.2335 4.6239 8.5183 0.54162 3.33-0.86264 6.9808-3.8034 8.7582-2.474 1.4952-5.5753 1.8468-8.3758 1.259-2.308-0.56227-4.2326-3.1475-3.306-5.5219 0.37481-1.3359 2.5875-1.4717 2.0864 0.25019 0.37283 1.5861 3.0486 0.95578 3.2077-0.53164 0.69837-2.0365 0.0572-4.2554-1.1214-5.9776-1.5956-2.8029-3.6052-5.4983-4.2808-8.709-0.98987-5.1741 1.8933-10.681 6.5592-13.035 2.543-1.3443 5.5068-1.8026 8.3454-1.376z"/>
    <path d="m563.13 600.92c-0.22571 1e-3 -0.45189 0.0229-0.67383 0.0644-3.3352 0.14013-5.8347 3.1878-6.2344 6.3476-0.6308 2.4639 0.74694 5.1779 3.0938 6.1367-1.1068 2.6102-2.3743 5.1545-3.8203 7.5938-0.22038 0.28886-0.40992 0.5929-0.57812 0.90821-1.7125 2.3627-3.2504 4.8612-5.2695 6.9844-1.0517 1.1624-3.1945 3.1268-4.6113 1.4141-0.84347-2.0909-0.19681-4.4259 0.29296-6.5332 1.4078-4.8289 3.2513-9.6807 6.4102-13.654 1.0752-1.9693-2.0003-3.1549-3.3242-4.0039-1.6836-1.0182-4.1617-1.7263-5.2188 0.54883-2.5946 3.9538-4.0413 8.5488-5.1719 13.105-0.85531 2.3577-2.1138 4.6142-3.6856 6.5781-1.0218 1.267-3.118 2.9706-4.6445 1.5078-0.90986-1.6199-0.45222-3.619-0.0977-5.3496 1.2491-4.4951 3.112-8.9294 6.0566-12.586 0.69485-1.8931-1.7408-3.0684-3.0215-3.9609-1.6016-1.2696-3.8061-1.0552-4.8086 0.85351-3.3645 4.5819-5.3336 10.044-6.7539 15.504-1.0623 4.4962-1.8345 9.6447 0.75 13.789 1.2682 2.3049 4.3016 3.1509 6.6562 2.1133 3.3454-1.7005 5.7637-4.7608 7.7695-7.8535 1.0832-2.3223 0.59778 0.80523 0.87305 1.8359 0.36916 2.7258 1.0047 5.8928 3.4473 7.5273 2.0857 0.93778 4.5517 0.15057 6.5137-0.76758 4.6242-2.7626 8.0047-7.2043 10.154-12.111 2.4376-3.6683 4.8119-7.3877 6.6738-11.389 0.30501-2.0463 1.9936-2.5503 3.5996-3.4394 0.63503-0.0875 2.063-2.1712 2.0918-1.2383-1.3451 4.055-3.053 7.9822-4.502 12.002-0.99579 2.9363-2.2814 5.8076-2.8594 8.8652-0.59925 3.092 0.54307 6.9411 3.7051 8.1387 3.217 0.92765 6.529-0.69513 8.959-2.7383 4.207-3.5414 7.4535-8.3485 8.8203-13.703 0.33506-1.3828 0.93914-3.9351-1.0312-4.2227-0.25538 0.0119-0.46346 0.17755-0.64843 0.33594-2.6079 2.9238-4.4235 6.4779-7.0898 9.3613-0.76439 0.81016-3.1937 3.2686-3.7246 1.3301 0.88647-3.7745 2.5811-7.3044 3.9102-10.938 0.92088-2.9394 2.2131-6.0258 1.5664-9.1562-0.61423-2.2896-2.3355-4.7814-4.8789-5.0156-1.9671 0.44566-3.6146 1.7321-5.416 2.5918-0.37198-0.58439 0.60975-2.9062 0.125-4.1641-0.24694-1.6683-1.8243-2.6234-3.4043-2.6133z"/>
   </g>
  </g>
  <g transform="matrix(1.5604 0 0 1.5604 840.75 -1091.8)" stroke-width=".64086">
   <g transform="translate(-14.595 208.25)" fill="#202225" stroke-width=".64086">
    <circle cx="309.02" cy="740.8" r=".04043" stop-color="#000000" style="-inkscape-stroke:none;font-variation-settings:normal;paint-order:fill markers stroke"/>
    <circle cx="308.82" cy="749.77" r=".08086" stop-color="#000000" style="-inkscape-stroke:none;font-variation-settings:normal;paint-order:fill markers stroke"/>
    <circle cx="308.72" cy="758.95" r=".090967" stop-color="#000000" style="-inkscape-stroke:none;font-variation-settings:normal;paint-order:fill markers stroke"/>
    <circle cx="308.92" cy="768.02" r=".060645" stop-color="#000000" style="-inkscape-stroke:none;font-variation-settings:normal;paint-order:fill markers stroke"/>
    <circle cx="309.12" cy="776.99" r=".010107" stop-color="#000000" style="-inkscape-stroke:none;font-variation-settings:normal;paint-order:fill markers stroke"/>
    <circle cx="317.2" cy="714.09" r=".010107" stop-color="#000000" style="-inkscape-stroke:none;font-variation-settings:normal;paint-order:fill markers stroke"/>
    <circle cx="317" cy="722.86" r=".15161" stop-color="#000000" style="-inkscape-stroke:none;font-variation-settings:normal;paint-order:fill markers stroke"/>
    <circle cx="316.8" cy="731.73" r=".42451" stop-color="#000000" style="-inkscape-stroke:none;font-variation-settings:normal;paint-order:fill markers stroke"/>
    <circle cx="316.6" cy="740.6" r=".6772" stop-color="#000000" style="-inkscape-stroke:none;font-variation-settings:normal;paint-order:fill markers stroke"/>
    <circle cx="316.4" cy="749.57" r=".82881" stop-color="#000000" style="-inkscape-stroke:none;font-variation-settings:normal;paint-order:fill markers stroke"/>
    <circle cx="316.3" cy="758.75" r=".85913" stop-color="#000000" style="-inkscape-stroke:none;font-variation-settings:normal;paint-order:fill markers stroke"/>
    <circle cx="316.7" cy="776.79" r=".5458" stop-color="#000000" style="-inkscape-stroke:none;font-variation-settings:normal;paint-order:fill markers stroke"/>
    <circle cx="325.47" cy="705.22" r=".050537" stop-color="#000000" style="-inkscape-stroke:none;font-variation-settings:normal;paint-order:fill markers stroke"/>
    <circle cx="325.27" cy="713.89" r=".4043" stop-color="#000000" style="-inkscape-stroke:none;font-variation-settings:normal;paint-order:fill markers stroke"/>
    <circle cx="325.07" cy="722.66" r=".89956" stop-color="#000000" style="-inkscape-stroke:none;font-variation-settings:normal;paint-order:fill markers stroke"/>
    <circle cx="324.87" cy="731.53" r="1.314" stop-color="#000000" style="-inkscape-stroke:none;font-variation-settings:normal;paint-order:fill markers stroke"/>
    <circle cx="324.47" cy="749.37" r="1.789" stop-color="#000000" style="-inkscape-stroke:none;font-variation-settings:normal;paint-order:fill markers stroke"/>
    <circle cx="324.37" cy="758.55" r="1.8193" stop-color="#000000" style="-inkscape-stroke:none;font-variation-settings:normal;paint-order:fill markers stroke"/>
    <circle cx="324.77" cy="776.59" r="1.4656" stop-color="#000000" style="-inkscape-stroke:none;font-variation-settings:normal;paint-order:fill markers stroke"/>
    <circle cx="324.97" cy="785.56" r="1.1017" stop-color="#000000" style="-inkscape-stroke:none;font-variation-settings:normal;paint-order:fill markers stroke"/>
    <circle cx="325.37" cy="803.3" r=".12129" stop-color="#000000" style="-inkscape-stroke:none;font-variation-settings:normal;paint-order:fill markers stroke"/>
    <circle cx="333.94" cy="696.55" r=".050537" stop-color="#000000" style="-inkscape-stroke:none;font-variation-settings:normal;paint-order:fill markers stroke"/>
    <circle cx="333.74" cy="705.02" r=".52559" stop-color="#000000" style="-inkscape-stroke:none;font-variation-settings:normal;paint-order:fill markers stroke"/>
    <circle cx="333.54" cy="713.69" r="1.1725" stop-color="#000000" style="-inkscape-stroke:none;font-variation-settings:normal;paint-order:fill markers stroke"/>
    <circle cx="333.34" cy="722.46" r="1.7385" stop-color="#000000" style="-inkscape-stroke:none;font-variation-settings:normal;paint-order:fill markers stroke"/>
    <circle cx="333.14" cy="731.33" r="2.1933" stop-color="#000000" style="-inkscape-stroke:none;font-variation-settings:normal;paint-order:fill markers stroke"/>
    <circle cx="333.04" cy="776.39" r="2.3247" stop-color="#000000" style="-inkscape-stroke:none;font-variation-settings:normal;paint-order:fill markers stroke"/>
    <circle cx="333.24" cy="785.36" r="1.971" stop-color="#000000" style="-inkscape-stroke:none;font-variation-settings:normal;paint-order:fill markers stroke"/>
    <circle cx="333.44" cy="794.23" r="1.3948" stop-color="#000000" style="-inkscape-stroke:none;font-variation-settings:normal;paint-order:fill markers stroke"/>
    <circle cx="333.64" cy="803.1" r=".72774" stop-color="#000000" style="-inkscape-stroke:none;font-variation-settings:normal;paint-order:fill markers stroke"/>
    <circle cx="333.84" cy="811.77" r=".15161" stop-color="#000000" style="-inkscape-stroke:none;font-variation-settings:normal;paint-order:fill markers stroke"/>
    <circle cx="342.61" cy="688.18" r=".020215" stop-color="#000000" style="-inkscape-stroke:none;font-variation-settings:normal;paint-order:fill markers stroke"/>
    <circle cx="342.41" cy="696.35" r=".43462" stop-color="#000000" style="-inkscape-stroke:none;font-variation-settings:normal;paint-order:fill markers stroke"/>
    <circle cx="342.21" cy="704.82" r="1.1927" stop-color="#000000" style="-inkscape-stroke:none;font-variation-settings:normal;paint-order:fill markers stroke"/>
    <circle cx="342.01" cy="713.49" r="1.9103" stop-color="#000000" style="-inkscape-stroke:none;font-variation-settings:normal;paint-order:fill markers stroke"/>
    <circle cx="341.81" cy="722.26" r="2.4258" stop-color="#000000" style="-inkscape-stroke:none;font-variation-settings:normal;paint-order:fill markers stroke"/>
    <circle cx="341.11" cy="730.13" r="2.5774" stop-color="#000000" style="-inkscape-stroke:none;font-variation-settings:normal;paint-order:fill markers stroke"/>
    <circle cx="342.11" cy="802.9" r="1.4252" stop-color="#000000" style="-inkscape-stroke:none;font-variation-settings:normal;paint-order:fill markers stroke"/>
    <circle cx="342.31" cy="811.57" r=".66709" stop-color="#000000" style="-inkscape-stroke:none;font-variation-settings:normal;paint-order:fill markers stroke"/>
    <circle cx="342.51" cy="820.04" r=".08086" stop-color="#000000" style="-inkscape-stroke:none;font-variation-settings:normal;paint-order:fill markers stroke"/>
    <circle cx="351.28" cy="687.98" r=".21226" stop-color="#000000" style="-inkscape-stroke:none;font-variation-settings:normal;paint-order:fill markers stroke"/>
    <circle cx="351.08" cy="696.15" r="1.0107" stop-color="#000000" style="-inkscape-stroke:none;font-variation-settings:normal;paint-order:fill markers stroke"/>
    <circle cx="350.88" cy="704.62" r="1.8396" stop-color="#000000" style="-inkscape-stroke:none;font-variation-settings:normal;paint-order:fill markers stroke"/>
    <circle cx="350.68" cy="713.29" r="2.4662" stop-color="#000000" style="-inkscape-stroke:none;font-variation-settings:normal;paint-order:fill markers stroke"/>
    <circle cx="350.78" cy="802.7" r="2.0821" stop-color="#000000" style="-inkscape-stroke:none;font-variation-settings:normal;paint-order:fill markers stroke"/>
    <circle cx="350.98" cy="811.37" r="1.2735" stop-color="#000000" style="-inkscape-stroke:none;font-variation-settings:normal;paint-order:fill markers stroke"/>
    <circle cx="351.18" cy="819.84" r=".42451" stop-color="#000000" style="-inkscape-stroke:none;font-variation-settings:normal;paint-order:fill markers stroke"/>
    <circle cx="351.38" cy="828.11" r=".010107" stop-color="#000000" style="-inkscape-stroke:none;font-variation-settings:normal;paint-order:fill markers stroke"/>
    <circle cx="360.25" cy="680.01" r=".020215" stop-color="#000000" style="-inkscape-stroke:none;font-variation-settings:normal;paint-order:fill markers stroke"/>
    <circle cx="360.05" cy="687.78" r=".57613" stop-color="#000000" style="-inkscape-stroke:none;font-variation-settings:normal;paint-order:fill markers stroke"/>
    <circle cx="359.85" cy="695.95" r="1.4959" stop-color="#000000" style="-inkscape-stroke:none;font-variation-settings:normal;paint-order:fill markers stroke"/>
    <circle cx="359.65" cy="704.42" r="2.3348" stop-color="#000000" style="-inkscape-stroke:none;font-variation-settings:normal;paint-order:fill markers stroke"/>
    <circle cx="358.55" cy="712.49" r="2.5774" stop-color="#000000" style="-inkscape-stroke:none;font-variation-settings:normal;paint-order:fill markers stroke"/>
    <circle cx="359.45" cy="793.03" r="2.5774" stop-color="#000000" style="-inkscape-stroke:none;font-variation-settings:normal;paint-order:fill markers stroke"/>
    <circle cx="359.55" cy="802.5" r="2.4864" stop-color="#000000" style="-inkscape-stroke:none;font-variation-settings:normal;paint-order:fill markers stroke"/>
    <circle cx="359.75" cy="811.17" r="1.789" stop-color="#000000" style="-inkscape-stroke:none;font-variation-settings:normal;paint-order:fill markers stroke"/>
    <circle cx="359.95" cy="819.64" r=".86924" stop-color="#000000" style="-inkscape-stroke:none;font-variation-settings:normal;paint-order:fill markers stroke"/>
    <circle cx="360.15" cy="827.91" r=".11118" stop-color="#000000" style="-inkscape-stroke:none;font-variation-settings:normal;paint-order:fill markers stroke"/>
    <circle cx="369.12" cy="679.81" r=".10107" stop-color="#000000" style="-inkscape-stroke:none;font-variation-settings:normal;paint-order:fill markers stroke"/>
    <circle cx="368.92" cy="687.58" r=".88946" stop-color="#000000" style="-inkscape-stroke:none;font-variation-settings:normal;paint-order:fill markers stroke"/>
    <circle cx="368.72" cy="695.75" r="1.8497" stop-color="#000000" style="-inkscape-stroke:none;font-variation-settings:normal;paint-order:fill markers stroke"/>
    <circle cx="368.52" cy="704.22" r="2.5269" stop-color="#000000" style="-inkscape-stroke:none;font-variation-settings:normal;paint-order:fill markers stroke"/>
    <circle cx="367.42" cy="712.59" r="2.5774" stop-color="#000000" style="-inkscape-stroke:none;font-variation-settings:normal;paint-order:fill markers stroke"/>
    <circle cx="368.32" cy="793.13" r="2.5774" stop-color="#000000" style="-inkscape-stroke:none;font-variation-settings:normal;paint-order:fill markers stroke"/>
    <circle cx="368.42" cy="801.9" r="2.5774" stop-color="#000000" style="-inkscape-stroke:none;font-variation-settings:normal;paint-order:fill markers stroke"/>
    <circle cx="368.62" cy="810.97" r="2.1428" stop-color="#000000" style="-inkscape-stroke:none;font-variation-settings:normal;paint-order:fill markers stroke"/>
    <circle cx="368.82" cy="819.44" r="1.1927" stop-color="#000000" style="-inkscape-stroke:none;font-variation-settings:normal;paint-order:fill markers stroke"/>
    <circle cx="369.02" cy="827.71" r=".2729" stop-color="#000000" style="-inkscape-stroke:none;font-variation-settings:normal;paint-order:fill markers stroke"/>
    <circle cx="377.99" cy="679.61" r=".19204" stop-color="#000000" style="-inkscape-stroke:none;font-variation-settings:normal;paint-order:fill markers stroke"/>
    <circle cx="377.79" cy="687.38" r="1.0916" stop-color="#000000" style="-inkscape-stroke:none;font-variation-settings:normal;paint-order:fill markers stroke"/>
    <circle cx="377.59" cy="695.55" r="2.0821" stop-color="#000000" style="-inkscape-stroke:none;font-variation-settings:normal;paint-order:fill markers stroke"/>
    <circle cx="376.29" cy="703.82" r="2.5774" stop-color="#000000" style="-inkscape-stroke:none;font-variation-settings:normal;paint-order:fill markers stroke"/>
    <circle cx="377.29" cy="793.23" r="2.5774" stop-color="#000000" style="-inkscape-stroke:none;font-variation-settings:normal;paint-order:fill markers stroke"/>
    <circle cx="377.39" cy="802" r="2.5774" stop-color="#000000" style="-inkscape-stroke:none;font-variation-settings:normal;paint-order:fill markers stroke"/>
    <circle cx="377.49" cy="810.77" r="2.3348" stop-color="#000000" style="-inkscape-stroke:none;font-variation-settings:normal;paint-order:fill markers stroke"/>
    <circle cx="377.69" cy="819.24" r="1.415" stop-color="#000000" style="-inkscape-stroke:none;font-variation-settings:normal;paint-order:fill markers stroke"/>
    <circle cx="377.89" cy="827.51" r=".42451" stop-color="#000000" style="-inkscape-stroke:none;font-variation-settings:normal;paint-order:fill markers stroke"/>
    <circle cx="386.86" cy="679.41" r=".24258" stop-color="#000000" style="-inkscape-stroke:none;font-variation-settings:normal;paint-order:fill markers stroke"/>
    <circle cx="386.66" cy="687.18" r="1.1826" stop-color="#000000" style="-inkscape-stroke:none;font-variation-settings:normal;paint-order:fill markers stroke"/>
    <circle cx="386.46" cy="695.35" r="2.1832" stop-color="#000000" style="-inkscape-stroke:none;font-variation-settings:normal;paint-order:fill markers stroke"/>
    <circle cx="386.16" cy="793.33" r="2.5774" stop-color="#000000" style="-inkscape-stroke:none;font-variation-settings:normal;paint-order:fill markers stroke"/>
    <circle cx="386.26" cy="802.1" r="2.5774" stop-color="#000000" style="-inkscape-stroke:none;font-variation-settings:normal;paint-order:fill markers stroke"/>
    <circle cx="386.36" cy="810.57" r="2.4056" stop-color="#000000" style="-inkscape-stroke:none;font-variation-settings:normal;paint-order:fill markers stroke"/>
    <circle cx="386.56" cy="819.04" r="1.506" stop-color="#000000" style="-inkscape-stroke:none;font-variation-settings:normal;paint-order:fill markers stroke"/>
    <circle cx="386.76" cy="827.31" r=".50537" stop-color="#000000" style="-inkscape-stroke:none;font-variation-settings:normal;paint-order:fill markers stroke"/>
    <circle cx="395.84" cy="679.51" r=".23247" stop-color="#000000" style="-inkscape-stroke:none;font-variation-settings:normal;paint-order:fill markers stroke"/>
    <circle cx="395.64" cy="687.28" r="1.1624" stop-color="#000000" style="-inkscape-stroke:none;font-variation-settings:normal;paint-order:fill markers stroke"/>
    <circle cx="395.44" cy="695.45" r="2.1529" stop-color="#000000" style="-inkscape-stroke:none;font-variation-settings:normal;paint-order:fill markers stroke"/>
    <circle cx="394.14" cy="704.02" r="2.5774" stop-color="#000000" style="-inkscape-stroke:none;font-variation-settings:normal;paint-order:fill markers stroke"/>
    <circle cx="395.24" cy="802.2" r="2.5774" stop-color="#000000" style="-inkscape-stroke:none;font-variation-settings:normal;paint-order:fill markers stroke"/>
    <circle cx="395.34" cy="810.67" r="2.3854" stop-color="#000000" style="-inkscape-stroke:none;font-variation-settings:normal;paint-order:fill markers stroke"/>
    <circle cx="395.54" cy="819.14" r="1.4757" stop-color="#000000" style="-inkscape-stroke:none;font-variation-settings:normal;paint-order:fill markers stroke"/>
    <circle cx="395.74" cy="827.41" r=".47505" stop-color="#000000" style="-inkscape-stroke:none;font-variation-settings:normal;paint-order:fill markers stroke"/>
    <circle cx="404.71" cy="679.71" r=".15161" stop-color="#000000" style="-inkscape-stroke:none;font-variation-settings:normal;paint-order:fill markers stroke"/>
    <circle cx="404.51" cy="687.48" r="1.0209" stop-color="#000000" style="-inkscape-stroke:none;font-variation-settings:normal;paint-order:fill markers stroke"/>
    <circle cx="404.31" cy="695.65" r="2.0013" stop-color="#000000" style="-inkscape-stroke:none;font-variation-settings:normal;paint-order:fill markers stroke"/>
    <circle cx="404.11" cy="704.12" r="2.5673" stop-color="#000000" style="-inkscape-stroke:none;font-variation-settings:normal;paint-order:fill markers stroke"/>
    <circle cx="403.01" cy="712.99" r="2.5774" stop-color="#000000" style="-inkscape-stroke:none;font-variation-settings:normal;paint-order:fill markers stroke"/>
    <circle cx="404.01" cy="802.3" r="2.5774" stop-color="#000000" style="-inkscape-stroke:none;font-variation-settings:normal;paint-order:fill markers stroke"/>
    <circle cx="404.21" cy="810.87" r="2.2641" stop-color="#000000" style="-inkscape-stroke:none;font-variation-settings:normal;paint-order:fill markers stroke"/>
    <circle cx="404.41" cy="819.34" r="1.3342" stop-color="#000000" style="-inkscape-stroke:none;font-variation-settings:normal;paint-order:fill markers stroke"/>
    <circle cx="404.61" cy="827.61" r=".36387" stop-color="#000000" style="-inkscape-stroke:none;font-variation-settings:normal;paint-order:fill markers stroke"/>
    <circle cx="413.58" cy="679.91" r=".060645" stop-color="#000000" style="-inkscape-stroke:none;font-variation-settings:normal;paint-order:fill markers stroke"/>
    <circle cx="413.38" cy="687.68" r=".75806" stop-color="#000000" style="-inkscape-stroke:none;font-variation-settings:normal;paint-order:fill markers stroke"/>
    <circle cx="413.18" cy="695.85" r="1.7082" stop-color="#000000" style="-inkscape-stroke:none;font-variation-settings:normal;paint-order:fill markers stroke"/>
    <circle cx="412.98" cy="704.32" r="2.4662" stop-color="#000000" style="-inkscape-stroke:none;font-variation-settings:normal;paint-order:fill markers stroke"/>
    <circle cx="411.88" cy="713.09" r="2.5774" stop-color="#000000" style="-inkscape-stroke:none;font-variation-settings:normal;paint-order:fill markers stroke"/>
    <circle cx="413.08" cy="811.07" r="2.0013" stop-color="#000000" style="-inkscape-stroke:none;font-variation-settings:normal;paint-order:fill markers stroke"/>
    <circle cx="413.28" cy="819.54" r="1.0613" stop-color="#000000" style="-inkscape-stroke:none;font-variation-settings:normal;paint-order:fill markers stroke"/>
    <circle cx="413.48" cy="827.81" r=".20215" stop-color="#000000" style="-inkscape-stroke:none;font-variation-settings:normal;paint-order:fill markers stroke"/>
    <circle cx="422.25" cy="687.88" r=".42451" stop-color="#000000" style="-inkscape-stroke:none;font-variation-settings:normal;paint-order:fill markers stroke"/>
    <circle cx="422.05" cy="696.05" r="1.314" stop-color="#000000" style="-inkscape-stroke:none;font-variation-settings:normal;paint-order:fill markers stroke"/>
    <circle cx="421.85" cy="704.52" r="2.163" stop-color="#000000" style="-inkscape-stroke:none;font-variation-settings:normal;paint-order:fill markers stroke"/>
    <circle cx="421.95" cy="811.27" r="1.5869" stop-color="#000000" style="-inkscape-stroke:none;font-variation-settings:normal;paint-order:fill markers stroke"/>
    <circle cx="422.15" cy="819.74" r=".69742" stop-color="#000000" style="-inkscape-stroke:none;font-variation-settings:normal;paint-order:fill markers stroke"/>
    <circle cx="422.35" cy="828.01" r=".050537" stop-color="#000000" style="-inkscape-stroke:none;font-variation-settings:normal;paint-order:fill markers stroke"/>
    <circle cx="431.02" cy="688.08" r=".12129" stop-color="#000000" style="-inkscape-stroke:none;font-variation-settings:normal;paint-order:fill markers stroke"/>
    <circle cx="430.82" cy="696.25" r=".8187" stop-color="#000000" style="-inkscape-stroke:none;font-variation-settings:normal;paint-order:fill markers stroke"/>
    <circle cx="430.62" cy="704.72" r="1.6273" stop-color="#000000" style="-inkscape-stroke:none;font-variation-settings:normal;paint-order:fill markers stroke"/>
    <circle cx="430.12" cy="785.06" r="2.5774" stop-color="#000000" style="-inkscape-stroke:none;font-variation-settings:normal;paint-order:fill markers stroke"/>
    <circle cx="430.32" cy="793.93" r="2.4763" stop-color="#000000" style="-inkscape-stroke:none;font-variation-settings:normal;paint-order:fill markers stroke"/>
    <circle cx="430.52" cy="802.8" r="1.88" stop-color="#000000" style="-inkscape-stroke:none;font-variation-settings:normal;paint-order:fill markers stroke"/>
    <circle cx="430.72" cy="811.47" r="1.0815" stop-color="#000000" style="-inkscape-stroke:none;font-variation-settings:normal;paint-order:fill markers stroke"/>
    <circle cx="430.92" cy="819.94" r=".28301" stop-color="#000000" style="-inkscape-stroke:none;font-variation-settings:normal;paint-order:fill markers stroke"/>
    <circle cx="439.49" cy="696.45" r=".28301" stop-color="#000000" style="-inkscape-stroke:none;font-variation-settings:normal;paint-order:fill markers stroke"/>
    <circle cx="439.29" cy="704.92" r="1.0006" stop-color="#000000" style="-inkscape-stroke:none;font-variation-settings:normal;paint-order:fill markers stroke"/>
    <circle cx="438.79" cy="785.26" r="2.4359" stop-color="#000000" style="-inkscape-stroke:none;font-variation-settings:normal;paint-order:fill markers stroke"/>
    <circle cx="438.99" cy="794.13" r="1.9406" stop-color="#000000" style="-inkscape-stroke:none;font-variation-settings:normal;paint-order:fill markers stroke"/>
    <circle cx="439.19" cy="803" r="1.223" stop-color="#000000" style="-inkscape-stroke:none;font-variation-settings:normal;paint-order:fill markers stroke"/>
    <circle cx="439.39" cy="811.67" r=".49527" stop-color="#000000" style="-inkscape-stroke:none;font-variation-settings:normal;paint-order:fill markers stroke"/>
    <circle cx="439.59" cy="820.14" r=".030322" stop-color="#000000" style="-inkscape-stroke:none;font-variation-settings:normal;paint-order:fill markers stroke"/>
    <circle cx="448.06" cy="696.65" r=".020215" stop-color="#000000" style="-inkscape-stroke:none;font-variation-settings:normal;paint-order:fill markers stroke"/>
    <circle cx="447.36" cy="785.46" r="1.7082" stop-color="#000000" style="-inkscape-stroke:none;font-variation-settings:normal;paint-order:fill markers stroke"/>
    <circle cx="447.56" cy="794.33" r="1.1624" stop-color="#000000" style="-inkscape-stroke:none;font-variation-settings:normal;paint-order:fill markers stroke"/>
    <circle cx="447.76" cy="803.2" r=".51548" stop-color="#000000" style="-inkscape-stroke:none;font-variation-settings:normal;paint-order:fill markers stroke"/>
    <circle cx="447.96" cy="811.87" r=".060645" stop-color="#000000" style="-inkscape-stroke:none;font-variation-settings:normal;paint-order:fill markers stroke"/>
    <circle cx="455.83" cy="785.66" r=".83892" stop-color="#000000" style="-inkscape-stroke:none;font-variation-settings:normal;paint-order:fill markers stroke"/>
    <circle cx="456.03" cy="794.53" r=".37398" stop-color="#000000" style="-inkscape-stroke:none;font-variation-settings:normal;paint-order:fill markers stroke"/>
    <circle cx="456.23" cy="803.4" r=".04043" stop-color="#000000" style="-inkscape-stroke:none;font-variation-settings:normal;paint-order:fill markers stroke"/>
    <circle cx="464.1" cy="785.86" r=".11118" stop-color="#000000" style="-inkscape-stroke:none;font-variation-settings:normal;paint-order:fill markers stroke"/>
    <circle cx="464.3" cy="794.73" r=".010107" stop-color="#000000" style="-inkscape-stroke:none;font-variation-settings:normal;paint-order:fill markers stroke"/>
    <circle cx="471.47" cy="749.87" r=".010107" stop-color="#000000" style="-inkscape-stroke:none;font-variation-settings:normal;paint-order:fill markers stroke"/>
    <circle cx="471.57" cy="759.05" r=".010107" stop-color="#000000" style="-inkscape-stroke:none;font-variation-settings:normal;paint-order:fill markers stroke"/>
   </g>
   <path d="m302.77 945.82 30.32-7.7536v-11.36l19.708 3.7867 20.79-24.523 12.994 20.736 78.124-21.387-7.3059 29.501 48.078 13.884-49.81 27.949 28.587 28.67-73.235-16.136 4.9236 33.511-59.463-29.095-34.651 18.212 5.4143-30.834-29.237 0.1803 23.822-21.277z" fill="#fee82e" stroke="#202225" stroke-linecap="round" stroke-miterlimit="100" stroke-width="4.2855" style="paint-order:fill markers stroke"/>
   <g transform="translate(-1337.2 359.26)">
    <g stroke-width=".48228">
     <g transform="matrix(1.3288 0 -.35606 1.3288 -342.53 -200.01)">
      <path d="m1668 604.1c1.0208-2.1294 1.978-4.6138 1.7878-7.2711-0.9285 0.11061-1.8704 0.33939-2.7981 0.57203-0.2966 1.4259-0.2151 2.9033-0.4053 4.338-0.1398 1.6987-0.1591 3.3916-0.2423 5.071 0.608-0.80371 1.1954-1.8813 1.6579-2.7099zm-7.2127 11.626c-1.2744-1.0347-1.7938-3.0152-1.5731-4.8565 0.045-1.5461 0.338-3.0765 0.3208-4.6464 0.084-3.9261 0.3123-7.9329 0.7819-11.984 0.2674-1.5428 0.4826-3.3799 1.2407-4.6268 1.1858-0.84033 2.4096-1.2897 3.6313-1.8359 1.6729-0.67082 3.4561-1.1967 5.068-0.31159 1.3126 0.61212 2.3471 2.0036 3.2473 3.5117 1.2121 1.5492 2.3034 3.4245 2.7585 5.8065 0.5398 2.7255 0.3954 5.6693-0.075 8.3704-0.9064 4.5988-3.0145 8.4658-5.6611 11.225-2.0066 1.8679-4.6418 3.0276-7.1203 2.1101-1.1275-0.49807-1.7997-1.7827-2.6193-2.7625z" fill="#202225"/>
      <path d="m1674.3 598.26c0.1821-4.885-2.1435-9.768-5.4243-10.295-1.8906-0.32529-3.7838 0.83051-5.6293 1.5703-1.265 0.22947-1.9547 1.6636-2.108 3.3673-0.4588 2.7616-0.5836 5.5359-0.7803 8.2554-0.1803 3.0919-0.1048 6.156-0.4923 9.1578-0.2032 1.6337 0.035 3.4556 1.0903 4.5312 1.1082 1.2242 2.749 1.0637 4.1071 0.7029 3.1897-1.0104 5.5566-4.3704 7.2822-7.99 1.2095-2.7447 1.9871-5.978 1.9546-9.2997zm-3.8525-0.57765c-0.1933 3.5149-1.6903 6.5537-3.252 9.1314-0.8006 1.1761-1.7735 2.2534-2.9534 2.5973-0.4159-2.6225-0.065-5.3661-0.034-8.0848 0.081-1.8936 0.3052-3.7998 0.4258-5.7156 0.1-1.8946 1.7801-1.2808 2.6847-1.7499 0.9989-0.21376 2.4067-0.46706 2.9013 1.0868 0.2446 0.8577 0.1886 1.8204 0.2279 2.7348z" fill="#ff3f3f"/>
     </g>
     <g transform="matrix(1.3288 0 -.35606 1.3288 -347.22 -200.5)">
      <path d="m1684.6 594.93c-0.091 1.1629 0.2695 0.94055 0.7399 0.23176 0.9884-0.92948-0.4007-0.40465-0.7565-0.27301l0.017 0.0412zm4.9102 11.007c0.4297 1.2151 1.5927 1.4314 2.2295 2.074 0.7609 0.42889 1.3226 1.1994 1.846 2.2006 0.7392 1.2166 1.9057 2.2607 1.8713 4.0846-0.041 2.5189-1.892 3.6614-3.4036 3.4443-1.7504-0.17237-3.1599-1.933-4.3366-3.6844-0.6121-0.79894-1.2371-1.5607-1.7485-2.4896-0.4235-0.67598-0.8465-1.35-1.269-2.0222 0.031 2.1811 0.2948 4.3632 0.1613 6.5032-0.076 1.4273-1.0227 2.6495-2.0755 2.2562-1.3722-0.41756-2.0159-2.3318-3.106-3.3409-1.4245-2.0216-1.6662-5.0408-1.5487-7.7341 0.029-2.9118 0.4467-5.8397 0.2707-8.811-0.047-2.6662-0.1182-5.3733 0.089-8.0926 0.1532-1.8596 0.9017-3.6333 2.0288-4.4686 1.9852-1.4323 4.1529-2.0459 6.2896-2.1623 1.3702 0.019 2.8638 0.56052 3.7058 2.4905 0.9657 1.3994 2.1273 2.6876 2.4898 4.8611 0.5333 2.4091 0.5709 5.1839-0.2765 7.3697-0.9453 2.5493-2.2232 4.8146-3.8464 6.316 0.2002 0.38115 0.4974 0.89528 0.6295 1.2054z" fill="#202225"/>
      <path d="m1687.1 591.49c0.039 2.9977-1.6473 5.201-3.3422 6.0235-0.7148 0.47557-1.521 0.70203-1.3995-0.85898-2e-4 -1.6246-0.2146-3.407 0.088-4.9672 0.9297-0.43705 1.93-0.61381 2.8901-0.9293 0.5773-0.11205 1.7049-0.68652 1.7639 0.73195zm5.9533 20.26c0.086-1.7242-1.136-2.6546-2.0405-3.202-1.3391-0.7971-2.5115-2.1341-3.3425-3.8886-0.3931-0.9065-1.3174-2.0271-1.3632-2.8114 1.7871-1.4396 3.194-3.8637 4.172-6.5984 0.963-2.8316 0.5934-6.6246-0.7349-8.9923-1.0709-1.6823-2.7095-1.6574-4.1124-1.5027-1.6716 0.27985-3.348 0.88497-4.9099 1.9655-1.1068 0.81775-1.7034 2.7076-1.7012 4.4946-0.1933 3.4083 0.05 6.7668 0.017 10.1-0.1356 3.5682-0.687 7.2185 0.069 10.641 0.3368 1.5278 1.2215 3.3611 2.5465 3.0754 1.1271-0.61443 0.885-2.6877 0.8408-4.08-0.094-1.9405-0.1975-3.9041-0.082-5.8684 1.3029 1.1664 2.1958 3.0729 3.2832 4.6425 0.9629 1.5691 1.8834 3.3782 3.315 4.1132 1.4284 0.85409 3.7597 0.57227 4.0428-2.0882z" fill="#ff3f3f" stop-color="#000000" style="-inkscape-stroke:none;font-variation-settings:normal"/>
     </g>
     <g transform="matrix(1.3288 0 -.35606 1.3288 -353 -199.95)">
      <path d="m1706.1 599.4c-0.1912 0.96207 0.1526 0.69931 0 0zm-6.7615 15.243c-1.231-1.0166-1.4812-3.2509-1.4166-5.1109 0.047-5.3431 0.8285-10.655 1.5577-16.023 0.5427-3.3752 1.1083-6.924 2.3421-9.8889 0.9119-2.3343 2.7107-4.0056 4.3305-2.8517 0.9828 0.68513 1.5867 2.2787 2.4304 3.3461 1.6488 2.1549 2.2969 5.7097 2.8883 8.9613 0.3129 1.9196 0.6303 4.0329 0.7878 5.8185 0.4571 3.283 0.7732 6.6405 1.7011 9.6578 0.761 2.6845 0.8973 6.1942-0.4567 8.0982-0.9334 1.3085-2.6771 1.4502-3.6181-0.30394-0.6308-0.95711-1.283-1.912-1.9393-2.7647-0.6342-0.64036-0.4239-2.5519-0.974-2.7988-0.9592-0.0171-2.0998-0.0864-1.9691 1.8472-0.3327 1.9493-0.5097 4.4767-1.9003 5.2361-1.0511 0.41908-2.0972-0.61787-2.7948-1.8067-0.3233-0.47312-0.6463-0.9452-0.969-1.4163z" fill="#202225"/>
      <path d="m1706.9 600.92c-1.1132 0.0724-2.5745 0.52698-3.4831 0.20569 0.1922-4.0395 0.4161-8.3083 1.6394-11.98 1.0877 3.1382 1.2613 6.8 1.6931 10.236 0.054 0.51237 0.104 1.0251 0.1505 1.5379zm5.1932 9.0566c0.118-2.8572-1.1098-5.3524-1.4463-8.1288-0.8568-5.447-1.2028-11.201-2.6623-16.433-0.6236-2.3538-2.0565-4.509-3.5999-3.8392-1.8379 0.91407-2.7336 4.1925-3.3385 6.993-0.9698 4.351-1.484 8.8781-1.969 13.294-0.3032 3.25-0.7907 6.5478-0.3785 9.802 0.1279 1.1413 0.6365 2.1956 1.4101 2.5241 1.0196 0.71703 1.8624-0.60754 2.081-1.9858 0.4057-1.4857 0.3782-3.4848 0.888-4.7641 1.435-0.49144 2.9301-0.31853 4.3931-0.5002 0.2651 1.8268 0.2173 3.7626 0.7415 5.4891 0.4204 1.4379 1.5048 1.615 2.3104 1.2721 1.0049-0.43144 1.5304-2.1081 1.5704-3.7233z" fill="#ff3f3f" stop-color="#000000" stroke-width=".48228" style="-inkscape-stroke:none;font-variation-settings:normal"/>
     </g>
     <g transform="matrix(1.3288 0 -.35606 1.3288 -358.61 -199.95)">
      <path d="m1733 580.65c1.6254 3.4639 1.7902 8.0926 2.2229 12.263 0.3975 6.1152 0.1013 12.109-0.5189 17.761-0.4215 2.7775-1.0184 6.0437-2.7655 6.8348-0.888 0.39209-1.7491-0.67691-2.3729-1.8124-0.5292-0.88203-1.0771-1.7114-1.6667-2.4518-0.8054-1.4521-1.1957-3.3437-1.6985-5.0732-0.5914 2.6373-1.1253 5.3321-1.9816 7.6792-0.5535 1.2798-1.5662 2.4739-2.635 1.5836-1.2571-0.86887-2.0245-2.8629-3.1246-4.0875-1.1708-1.833-1.7319-4.4107-2.1008-6.8542-0.3917-2.9733-0.4244-6.111-0.3171-9.035 0.075-4.3224-0.7404-8.625-0.6342-13.039 0.038-1.5548 0.4298-3.6433 1.2741-4.5885 1.0291-0.97032 2.3829-0.11806 3.0426 1.6779 0.8306 1.342 1.8799 2.4156 2.309 4.3885 0.3582-1.7558 0.6754-3.8831 1.5833-4.9142 0.8923-0.84397 2.1697-0.25204 2.7692 1.3602 0.4628 0.7197 0.9261 1.4413 1.3899 2.1649-0.077-2.3014-0.6152-4.952 0.097-6.9888 0.7099-1.221 1.6862-1.4695 2.5954-0.81254 0.6154 0.49062 0.9595 1.6994 1.5276 2.3806 0.3346 0.52014 0.6697 1.0412 1.0049 1.5633z" fill="#202225"/>
      <path d="m1732.8 589.82c-0.4272-3.9219-0.5322-8.3471-2.061-11.61-0.7371-1.0331-2.1636-1.0171-2.4897 0.69934-0.1027 3.1613 0.3533 6.3319 0.4118 9.4688 0.1141 3.1348 0.1615 6.2451 0.1729 9.3274-0.5645-3.8368-1.2086-7.6621-2.063-11.39-0.4128-1.6012-0.6409-3.8974-1.6814-4.4758-1.2239-0.75779-1.8227 1.4447-2.1376 3.1536-0.8486 4.2252-1.55 8.5065-2.1879 12.749-0.1409 0.85143-0.2972 2.9632-0.3307 0.98832-0.2989-4.9228-0.4642-9.9052-0.7051-14.934-0.1234-2.2979-1.7679-4.1441-2.8454-2.8294-0.8385 1.3983-0.8308 3.5636-0.77 5.4824 0.1214 4.107 0.8136 8.1619 0.5934 12.195-0.072 4.3606 0.1656 9.0312 1.6845 12.887 0.6014 1.4676 1.9115 3.0214 2.8701 1.8589 1.2593-1.6063 1.5331-4.4728 2.2102-6.7985 0.5456-2.4876 0.9216-5.113 1.3348-7.7335 0.844 4.4861 1.9303 8.8796 3.304 13.032 0.5877 1.7346 2.0038 2.1108 2.6881 0.73867 1.5695-2.9127 1.6514-7.3776 1.985-11.389 0.2038-3.7188 0.2744-7.5562 0.017-11.42z" fill="#ff3f3f" stop-color="#000000" style="-inkscape-stroke:none;font-variation-settings:normal"/>
     </g>
     <g transform="matrix(1.3288 0 -.35606 1.3288 -364.05 -198.37)">
      <path d="m1745.1 599.73c-0.4922 0.41859-1.0832 3.6653-0.1733 2.0931 1.4482-1.8263 3.0185-3.7335 4.911-3.8565 1.0239-0.0534 2.0233 1.1139 2.7187 2.682 0.5146 0.8743 1.1169 1.8094 1.5501 2.6266 0.4856 0.82826 0.7768 2.2826 0.4005 3.1956-0.9437 3.5787-3.0127 5.1384-4.6669 7.3082-0.8796 0.81241-1.6968 1.811-2.6758 2.5257-1.1955 0.81433-2.5016 1.7182-3.8999 1.226-0.643-0.11394-1.4647-1.1325-1.7818-1.7094-0.6352-1.0127-1.2583-2.0499-1.9409-2.9368-0.938-1.5976-1.2248-3.8714-1.6468-5.8851-1.1428-7.0115-0.7301-14.209-0.6035-21.372 0.077-1.616 0.064-3.3027 0.2405-4.8778 0.6167-3.017 2.2672-4.2937 3.7282-5.4062 1.6578-1.191 3.4503-1.8415 5.2676-1.8489 0.9147 0.0677 1.6474 1.4021 2.2727 2.7087 0.8408 1.4596 1.9959 2.6882 2.1977 5.0543 0.2808 2.0578-0.3703 4.0574-1.332 4.4927 0.6395 1.6884 1.6446 2.679 2.3351 4.2928 0.7665 2.2971 0.4823 5.3478-0.6149 6.5105-1.0185 1.1158-2.3134 1.0778-3.4762 1.5525-0.9582 0.39046-2.0389 0.50262-2.8108 1.6237z" fill="#202225"/>
      <path d="m1752.1 601.74c-0.5429-2.3321-2.0696-2.9908-3.121-2.3632-2.4205 1.0921-4.1474 4.4537-6.4169 6.0609-0.4652-2.2249-0.751-4.6405-0.6256-6.9121 0.1318-2.5286 1.3754-3.9384 2.6283-4.3038 1.4-0.71454 2.9304-0.74791 4.2759-1.7208 1.034-0.82285 1.4151-3.7086 0.5559-5.6138-0.9734-2.0254-2.3677-1.1518-3.4483-0.73033-1.4325 0.56718-2.7438 1.7607-4.196 2.2231-0.1389-1.7134-0.077-3.7262 0.7152-4.6782 1.4325-2.3713 3.5694-1.4836 5.2916-2.5331 1.0264-0.79581 0.946-3.8453 0.057-5.2874-1.0347-1.8427-2.3775-1.0258-3.511-0.80521-1.8511 0.62263-3.6845 1.7035-5.2253 3.6775-0.6624 0.89357-1.1303 2.3009-1.063 3.9602-0.2249 5.5543-0.3494 11.087-0.2088 16.579 0.1359 4.0652 0.562 8.2918 1.7882 11.99 0.6123 1.7192 1.8346 2.4053 2.8309 2.0713 2.2091-0.57775 4.0418-2.7226 5.829-4.7392 1.4782-1.7918 3.2825-3.4441 3.8419-6.8748z" fill="#ff3f3f" stop-color="#000000" style="-inkscape-stroke:none;font-variation-settings:normal"/>
     </g>
     <g transform="matrix(1.3288 0 -.35606 1.3288 -369.85 -199.55)">
      <path d="m1759 610.47c-1.2649-1.4426-2.4397-4.256-2.0996-6.8881 0.17-1.8838 1.2135-2.767 2.2029-2.1633 0.902 0.47958 1.7436 1.3134 2.6016 2.0878 1.2794 0.77925 2.6603 0.731 3.7699-0.19086 0.5724-0.36248 1.2939-3.8942 0.2011-2.4521-1.5081 1.2374-3.4337 1.8644-5.1108-0.24408-1.0028-1.2678-1.8103-3.0622-2.8137-4.3006-1.5691-2.7121-2.2077-6.7899-2.4275-10.503-0.37-3.5396 0.09-7.1166 1.1713-9.668 1.8079-4.7933 5.1687-7.4341 8.368-5.2918 0.9661 0.67931 1.8177 2.0488 2.5644 3.5877 1.0121 1.7514 2.3057 3.4742 2.5266 6.3489 0.3835 2.7774-0.9377 4.3733-2.0849 4.2183-1.0755-0.0466-1.9452-0.9406-2.899-1.2183-1.2395-0.48872-2.4531 0.89717-2.9103 3.0357 1.3069-1.921 3.1628-3.101 4.9322-1.3715 1.3744 1.1224 2.2767 3.8172 3.4943 5.5263 1.6944 2.9753 2.564 7.5338 2.5637 11.588 0.056 3.7019-0.4915 7.3616-1.5343 9.829-1.3263 3.7659-3.8488 5.6848-6.4787 4.5543-1.9483-0.80875-3.9073-2.608-5.3989-5.4062-0.2128-0.35989-0.4256-0.71943-0.6383-1.0786z" fill="#202225"/>
      <path d="m1770.3 597.05c-0.2355-4.6031-1.9225-9.7664-4.2791-10.96-1.7625-0.95868-3.0993 1.3296-4.4807 2.6277-0.845 1.3246-1.8286-0.63107-2.1001-2.4693-0.5598-3.06 0.5545-5.8471 1.8143-6.8154 1.3521-1.1983 2.9063 0.71183 4.3475 0.87236 1.0489 0.3505 2.2354-1.3485 1.5667-3.8341-0.7813-3.4104-2.7101-4.9575-4.2726-5.054-3.1686-0.29634-6.2025 3.6352-7.0042 9.7693-0.2924 2.8318 0.013 5.936 0.4707 8.806 0.5029 2.92 1.5238 5.9819 3.1202 7.0078 1.5621 1.0888 3.0443 0.0108 4.3462-1.0882 0.7791-0.37984 1.9009-2.0315 2.658-0.58075 0.4655 2.433 0.6052 5.2035 0.1301 7.341-0.6352 2.4929-2.3243 2.666-3.716 2.5052-1.2856-0.0834-2.4486-1.6806-3.6704-2.4781-0.9001-0.75786-1.9771 0.16938-1.7953 2.1131 0.2415 2.9978 1.8515 4.9073 3.2213 6.1142 2.4052 2.2349 5.2765 2.4455 7.1102-0.4064 1.9273-2.9554 2.8615-8.0931 2.5332-13.47z" fill="#ff3f3f" stop-color="#000000" style="-inkscape-stroke:none;font-variation-settings:normal"/>
      <path d="m1770.4 590.92c0.1076 0.16621 0.1164 0.13309 0 0z"/>
      <path d="m1770.4 590.92c-0.1449-0.22948-0.094-0.14862 0 0z"/>
     </g>
     <g transform="matrix(1.3288 0 -.35606 1.3288 -375.59 -199.08)">
      <path d="m1784.4 587.6c-0.2463-1.7042-0.2394-4.4488-0.8403-5.502-1.552 0.37428-2.0304 3.9023-2.106 6.8922-0.12 4.0666 0.2804 8.3417 0.9357 12.424 0.2784 2.0985 1.605 0.17158 1.8415-0.86552 0.65-2.5265 0.5584-5.8336 0.431-8.9363-0.069-1.3311-0.1359-2.6703-0.2619-4.0128zm-4.3817 23.457c-2.3644-3.3666-3.8807-8.6236-4.858-13.721-1.1456-6.9433-1.1118-14.468 0.2316-20.589 0.8815-5.0226 2.8186-9.5369 5.5111-9.9042 1.853-0.37515 3.7503 2.2752 5.1699 5.4383 1.236 1.9762 2.4055 4.2616 3.2745 7.0979 2.8305 8.4603 3.6799 19.044 2.3417 27.094-0.8165 5.0832-2.5582 9.6906-5.3367 10.387-1.5319 0.42006-3.2721-0.67588-4.6445-2.9308-0.5708-0.94156-1.1265-1.9188-1.6896-2.8722z" fill="#202225"/>
      <path d="m1785 588.05c0.3126 4.2538 0.5971 8.7166-0.048 12.428-0.4406 2.509-1.8821 4.0428-3.3003 2.6709-1.5284-1.7203-2.0196-5.3574-2.4039-8.3613-0.5239-4.7728-0.8481-9.9427-0.017-14.211 0.5353-2.633 2.0513-4.5589 3.5334-2.8096 1.5813 1.9978 1.8226 6.1378 2.1521 9.3708l0.042 0.45585zm4.3373 1.3174c-0.5932-6.8372-2.3043-14.069-5.031-18.707-1.7984-3.0791-4.1566-3.1502-5.7033-0.84754-2.115 2.8838-3.0913 8.314-3.5295 13.602-0.6608 8.1267 0.6828 17.636 3.9003 24.338 1.4104 3.0666 3.5247 4.9245 5.3202 4.1532 2.9762-1.2674 4.528-7.0276 5.0751-12.971 0.2669-3.0182 0.2817-6.268-0.032-9.5688z" fill="#ff3f3f" stop-color="#000000" style="-inkscape-stroke:none;font-variation-settings:normal"/>
     </g>
     <g transform="matrix(1.3288 0 -.35606 1.3288 -382.06 -197.9)">
      <path d="m1801.3 573.53c0.4368 1.4908 1.1191 5.3466 1.3955 5.2885 0.1012-3.3934 0.4128-6.6412 0.6628-9.9547 0.2283-2.2514 0.7514-4.3341 1.6497-5.2765 1.1141-0.0236 2.1394 1.8688 3.0398 3.6953 1.0771 1.9441 2.2348 3.8575 2.9208 6.7071 0.7118 2.6179 1.384 5.6856 1.7375 8.6551 0.5768 4.102 0.7081 8.1677 1.157 12.221 0.6584 5.0802 1.582 10.235 1.6685 15.193-0.041 2.2444-0.2095 4.8029-1.1469 5.7026-0.9247 0.62282-2.0754-0.64467-2.8896-2.3867-0.6417-1.2061-1.2907-2.3731-1.9738-3.4196-0.6466-0.72316-1.057-4.5689-1.1607-1.8151-0.4998 1.8321-0.4933 6.1175-1.9887 5.004-1.1432-0.83196-1.9762-3.1098-2.9735-4.5797 0.2534 2.3204 0.6488 5.0428 0 6.748-0.8668 1.6041-2.5184 0.87762-3.5102-1.3182-0.6551-1.1519-1.2788-2.3942-1.994-3.3325-0.9394-1.7854-1.3311-4.33-1.7899-6.5887-1.0221-6.7369-1.5005-13.625-1.7988-20.461-0.1271-5.1581-0.5263-10.797 0.3919-15.35 0.4406-2.5354 1.932-4.0839 3.1913-1.9375 0.6596 1.3088 1.3235 2.6184 2.0239 3.8318 0.5436 0.92885 1.0436 2.0286 1.3844 3.3738z" fill="#202225"/>
      <path d="m1812.7 604.78c-0.2149-4.9908-1.1458-10.07-1.7551-15.128-0.4604-5.393-0.7082-10.953-1.9399-16.288-0.7721-3.2605-1.7847-7.2424-3.4103-8.1656-1.0705-0.32694-1.4416 2.4815-1.6799 4.3776-0.6178 6.4072-0.7127 13.168-1.0833 19.628-1.1974-6.7396-2.7276-13.342-4.3945-19.784-0.6457-2.5679-2.2412-3.6071-2.8795-1.4716-0.8748 2.5202-0.7924 6.2581-0.8174 9.5678 0.1215 5.8288 0.3231 11.656 0.9045 17.477 0.4644 4.5257 0.8514 9.2579 2.1438 13.46 0.687 2.3641 2.3832 3.5143 3.0874 1.6929 0.3009-2.0825-0.1025-4.6505-0.4166-6.9757-0.4645-2.9992-0.8772-6.0123-1.0893-9.0502-0.1607-1.7028-0.2749-3.4071-0.3577-5.1065 1.3144 5.6742 2.1472 11.733 3.899 17.051 0.8372 2.5992 2.2383 2.5308 2.3495-0.22077 1.1321-5.9198 1.041-13.082 1.4403-19.835 1.1256 6.707 1.607 13.441 2.3408 20.077 0.2893 2.9464 2.2869 5.7686 3.2107 3.8095 0.434-1.36 0.4777-3.284 0.4449-5.1143z" fill="#ff3f3f" stop-color="#000000" style="-inkscape-stroke:none;font-variation-settings:normal"/>
     </g>
     <g transform="matrix(1.3288 0 -.35606 1.3288 -389.46 -197.43)">
      <path d="m1825.4 593.26c-0.4637 0.52497-0.814 4.6698-0.018 2.6724 1.3196-2.3062 2.7583-4.7044 4.6529-4.8198 1.026-0.0458 2.1151 1.4566 2.9271 3.46 0.5801 1.1187 1.2525 2.3154 1.7465 3.3592 0.5471 1.0581 0.9443 2.9082 0.633 4.0635-0.6847 4.5452-2.6416 6.523-4.1352 9.2927-0.8186 1.0396-1.5602 2.3208-2.4845 3.2396-1.1325 1.0497-2.3676 2.2182-3.8034 1.5862-0.6515-0.14591-1.553-1.4621-1.9155-2.2081-0.7151-1.3104-1.4201-2.6537-2.1732-3.8036-1.0651-2.0724-1.5313-5.0156-2.1123-7.6226-1.693-9.065-1.8278-18.306-2.2377-27.471-0.043-2.0604-0.1798-4.213-0.1172-6.2128 0.4042-3.8105 1.9842-5.3505 3.3851-6.6875 1.5956-1.4229 3.3667-2.1532 5.2078-2.0714 0.9315 0.13049 1.7663 1.8453 2.4899 3.5188 0.952 1.8748 2.2055 3.4707 2.5734 6.457 0.4279 2.6028-0.091 5.1009-1.0308 5.6166 0.7646 2.1554 1.8485 3.4396 2.6584 5.4998 0.9352 2.9248 0.8662 6.7768-0.1548 8.2244-0.9441 1.3932-2.2494 1.3166-3.3844 1.8951-0.9355 0.47618-2.014 0.59754-2.7076 2.0115z" fill="#202225"/>
      <path d="m1832.6 595.95c-0.7143-2.972-2.297-3.8394-3.3084-3.0625-2.3529 1.3443-3.8369 5.6121-5.9936 7.6404-0.6368-2.8642-1.1061-5.969-1.1522-8.8772-0.057-3.2327 1.0907-5.0009 2.3257-5.433 1.3579-0.87157 2.8971-0.87198 4.1823-2.0699 0.983-1.0137 1.1616-4.6548 0.1599-7.0922-1.1263-2.5951-2.4721-1.5408-3.533-1.0458-1.4055 0.66801-2.6427 2.1383-4.0746 2.6761-0.2658-2.1872-0.3507-4.746 0.3814-5.9243 1.2775-2.9492 3.5015-1.7367 5.1684-2.993 0.9819-0.9619 0.6877-4.8084-0.3126-6.6651-1.1761-2.3703-2.4795-1.4063-3.6122-1.1835-1.8315 0.69593-3.6118 1.9748-5.03 4.4066-0.6058 1.1052-0.9764 2.8752-0.7865 4.9925 0.1846 7.0824 0.4752 14.164 1.0355 21.223 0.4501 5.2379 1.2069 10.698 2.7256 15.488 0.7479 2.226 2.0253 3.1171 2.9963 2.6892 2.1666-0.73635 3.8381-3.483 5.477-6.053 1.3482-2.2754 3.0377-4.3599 3.348-8.7159z" fill="#ff3f3f" stop-color="#000000" style="-inkscape-stroke:none;font-variation-settings:normal"/>
     </g>
    </g>
    <g transform="matrix(2.841 0 -.76125 1.4325 -2988.8 -263.07)" stroke-width=".31767">
     <path d="m1858.9 609.88c-1.3589-1.8024-2.4063-5.4681-2.4404-8.6772 0.063-2.5275 0.8733-4.3228 1.8884-4.6788-1.1954-1.2707-1.7178-4.541-2.08-7.1728-0.5375-4.7319-0.8124-9.5033-1.1598-14.327-0.3882-3.8848-1.001-7.8289-1.0862-11.768-0.255-3.6313 0.106-7.7343 1.3784-8.5829 0.6663-0.50486 1.5166 0.43694 2.0916 2.2294 0.9148 1.874 1.9751 3.2902 2.68 5.9542 0.7822 2.9812 1.2882 6.3074 1.4877 9.5309 0.2958 3.7501 0.3699 7.6359 0.5941 11.135 0.07 3.2418 0.041 6.3899 0.1386 9.5945 0.01 2.5069-0.1242 4.9599-0.5999 6.8543 0.9011 1.8171 2.0114 3.3655 2.4925 6.0607 0.803 3.4308 0.5194 7.2358-0.6616 8.4562-0.8756 1.156-2.2496 0.32535-3.2058-1.7733-0.5066-0.94866-1.0123-1.8938-1.517-2.8352z" fill="#202225"/>
     <path d="m1858.4 564.37c-0.4302-2.8526-0.9928-6.2556-2.0806-7.8196-1.122-1.1329-1.7778 1.6797-1.8276 4.2521-0.074 4.2321 0.489 8.6544 1.0048 12.907 0.4284 3.9631 0.5167 7.836 0.9166 11.726 0.2317 2.9136 0.5657 5.9998 1.3863 8.6109 1.0295 2.944 1.5498-0.62614 1.598-2.5721 0.2015-3.6014-0.046-7.5756-0.051-11.409-0.2149-5.1286-0.3263-10.33-0.9461-15.696z" fill="#ff3f3f" stop-color="#000000" style="-inkscape-stroke:none;font-variation-settings:normal"/>
     <path d="m1861.8 604.27c-0.1913-2.5308-1.0304-5.6345-2.1892-6.0861-1.2764-0.84285-2.6585 0.75131-2.5353 3.9354 0.2357 3.3102 1.6772 7.2655 3.1742 7.1675 1.0663-0.0977 1.8015-2.3188 1.5503-5.0168z" fill="#ff3f3f" stop-color="#000000" style="-inkscape-stroke:none;font-variation-settings:normal"/>
    </g>
   </g>
   <g fill="#fff" stroke="#36393f" stroke-width="3.5037">
    <path transform="matrix(.19145 -.014796 .011338 .17388 152.82 954.32)" d="m1497 516-34.738-12.005-32.069 17.958 0.683-36.748-26.989-24.95 35.161-10.706 15.389-33.378 21.048 30.131 36.5 4.3215-22.153 29.328z" stop-color="#000000" style="-inkscape-stroke:none;font-variation-settings:normal;paint-order:fill markers stroke"/>
    <path transform="matrix(.18651 .04566 -.043464 .16874 55.013 850.2)" d="m1497 516-34.738-12.005-32.069 17.958 0.683-36.748-26.989-24.95 35.161-10.706 15.389-33.378 21.048 30.131 36.5 4.3215-22.153 29.328z" stop-color="#000000" style="-inkscape-stroke:none;font-variation-settings:normal;paint-order:fill markers stroke"/>
    <path transform="matrix(.18037 -.065866 .057798 .16438 -10.376 976.32)" d="m1497 516-34.738-12.005-32.069 17.958 0.683-36.748-26.989-24.95 35.161-10.706 15.389-33.378 21.048 30.131 36.5 4.3215-22.153 29.328z" stop-color="#000000" style="-inkscape-stroke:none;font-variation-settings:normal;paint-order:fill markers stroke"/>
    <path transform="matrix(.16842 .092235 -.085528 .15181 203.06 698.72)" d="m1497 516-34.738-12.005-32.069 17.958 0.683-36.748-26.989-24.95 35.161-10.706 15.389-33.378 21.048 30.131 36.5 4.3215-22.153 29.328z" stop-color="#000000" style="-inkscape-stroke:none;font-variation-settings:normal;paint-order:fill markers stroke"/>
   </g>
  </g>
 </g>
</svg>
